<?xml version="1.0" encoding="UTF-8"?>
<svg width="90px" height="40px" viewBox="0 0 90 40" version="1.1" xmlns="http://www.w3.org/2000/svg" xmlns:xlink="http://www.w3.org/1999/xlink">
    <!-- Generator: Sketch 52.6 (67491) - http://www.bohemiancoding.com/sketch -->
    <title>Group 11</title>
    <desc>Created with Sketch.</desc>
    <defs>
        <polygon id="path-1" points="0 5e-05 90 5e-05 90 39.9999688 0 39.9999688"></polygon>
    </defs>
    <g id="Symbols" stroke="none" stroke-width="1" fill="none" fill-rule="evenodd">
        <g id="logo/color2">
            <g id="Group-11">
                <mask id="mask-2" fill="white">
                    <use xlink:href="#path-1"></use>
                </mask>
                <g id="Clip-2"></g>
                <path d="M52.9848214,7.38927143 C52.5362929,7.38927143 52.17295,7.02595 52.17295,6.57687857 L52.17295,0.812285714 C52.17295,0.363364286 52.5362929,5e-05 52.9848214,5e-05 C53.43335,5e-05 53.7966929,0.363364286 53.7966929,0.812285714 L53.7966929,6.57687857 C53.7966929,7.02595 53.43335,7.38927143 52.9848214,7.38927143" id="Fill-1" fill="#A6A8AB" mask="url(#mask-2)"></path>
                <path d="M56.6460929,8.16907143 C56.4839357,8.16907143 56.3196143,8.12037857 56.1765071,8.0185 C55.8117643,7.75876429 55.7258071,7.25092143 55.9863143,6.88542857 L59.12755,2.46665714 C59.3858929,2.10225 59.8914143,2.01432857 60.25925,2.27639286 C60.6239857,2.53612857 60.7099429,3.04381429 60.4494357,3.40945714 L57.3080429,7.82807857 C57.1505357,8.05044286 56.9000929,8.16907143 56.6460929,8.16907143" id="Fill-3" fill="#A6A8AB" mask="url(#mask-2)"></path>
                <path d="M49.9899571,8.24410714 C49.7684857,8.24410714 49.5471643,8.15339286 49.3862429,7.97475714 L45.7209,3.8931 C45.4212071,3.55955 45.4486214,3.04612143 45.7817643,2.74591429 C46.1139786,2.44648571 46.6261571,2.4716 46.9280143,2.80701429 L50.5938286,6.88867143 C50.8935143,7.22237143 50.8656429,7.7358 50.5323429,8.03585 C50.3780857,8.17587857 50.1834,8.24410714 49.9899571,8.24410714" id="Fill-4" fill="#A6A8AB" mask="url(#mask-2)"></path>
                <path d="M16.3513857,14.1700929 C16.2528786,14.0263429 16.0897929,13.94835 15.9157143,13.94835 L14.4583071,13.94835 C14.2373,13.94835 14.0395214,14.0781357 13.9625429,14.2857714 L8.22214286,29.8065214 L2.48158143,14.2879429 C2.40460714,14.0801571 2.20698286,13.94835 1.98581643,13.94835 L0.528568143,13.94835 C0.354330214,13.94835 0.191243571,14.0265 0.0928959286,14.1700929 C-0.00576146714,14.3136857 -0.0272895286,14.4930929 0.0352812429,14.6556071 L7.01099286,32.7855071 L6.58105143,33.8756214 C5.16035429,37.3444564 4.00542786,37.8222164 2.96898286,37.8222164 C2.58132286,37.8222164 2.21565571,37.8220614 1.83388143,37.7336736 C1.67668,37.6980079 1.53775429,37.7347586 1.41137357,37.8350864 C1.28561286,37.935415 1.2376,38.087845 1.2376,38.2491143 L1.2376,39.3688486 C1.2376,39.6248632 1.39464643,39.843972 1.64585929,39.8897166 C2.070225,39.9667846 2.46067286,39.9999688 2.98168286,39.9999688 C5.75508643,39.9999688 7.37,38.2103471 9.39952143,32.9078514 L16.41225,14.65545 C16.4749786,14.4930929 16.4500429,14.3136857 16.3513857,14.1700929" id="Fill-5" fill="#FFFFFF" mask="url(#mask-2)"></path>
                <path d="M24.0214786,31.2045429 C20.9974786,31.1933786 17.4743143,29.1416929 17.4955286,23.3960143 C17.5169071,17.6250643 21.05525,15.5905929 24.07925,15.6017571 C27.1187286,15.6130786 30.6604857,17.6737571 30.6391143,23.4447071 C30.6177357,29.1905357 27.0609643,31.2158571 24.0214786,31.2045429 M24.0871429,13.4573429 C18.6826714,13.4373429 15.0369929,17.4273571 15.01485,23.3867143 C14.9930071,29.3256 18.6091071,33.328795 24.0135786,33.3489536 C29.41805,33.3689571 33.0640357,29.3924357 33.0860286,23.4538571 C33.1080214,17.4943429 29.4916214,13.4775071 24.0871429,13.4573429" id="Fill-6" fill="#FFFFFF" mask="url(#mask-2)"></path>
                <path d="M48.1996429,13.9484714 L46.9116786,13.9484714 C46.6200429,13.9484714 46.4391429,14.1692857 46.4391429,14.4615857 L46.4391429,24.3701714 C46.4391429,29.38425 43.5853571,31.1707643 40.9408143,31.1707643 C37.5937429,31.1707643 36.75105,28.8956357 36.5190429,26.9926571 C36.4241071,26.1349857 36.5243071,25.3615143 36.5243071,24.2344929 L36.5243071,14.4615857 C36.5243071,14.1692857 36.5105286,13.9484714 36.2185786,13.9484714 L34.4054214,13.9484714 C34.1134786,13.9484714 34.1007786,14.1692857 34.1007786,14.4615857 L34.1007786,24.5737786 C34.1007786,25.9830214 34.0186929,26.6374 34.1285,27.6264143 C34.5805929,31.2098429 37.0673143,33.3488293 40.8271357,33.3488293 C43.0916071,33.3488293 45.1171071,32.4880571 46.4391429,30.8569143 L46.4391429,32.3446214 C46.4391429,32.6370714 46.6200429,32.9196057 46.9116786,32.9196057 L48.1996429,32.9196057 C48.4914357,32.9196057 48.8626786,32.6370714 48.8626786,32.3446214 L48.8626786,14.4615857 C48.8626786,14.1692857 48.4914357,13.9484714 48.1996429,13.9484714" id="Fill-7" fill="#FFFFFF" mask="url(#mask-2)"></path>
                <path d="M57.0450929,30.9387714 C56.5431286,31.0124286 56.1302286,31.0484071 55.7829929,31.0484071 C54.6258929,31.0484071 54.3424714,30.7201286 54.2506286,29.5241 C54.2179429,29.0682071 54.2768,28.6321571 54.2768,27.7634786 L54.2768,16.1542786 L57.0876857,16.1542786 C57.3796286,16.1542786 57.8021357,15.9074071 57.8021357,15.6151071 L57.8021357,14.5974071 C57.8021357,14.30495 57.3796286,13.9483 57.0876857,13.9483 L54.2768,13.9483 L54.2768,10.7967286 C54.2768,10.5045857 53.9225929,10.1983286 53.63065,10.1983286 L52.3428357,10.1983286 C52.0508929,10.1983286 51.8532643,10.5045857 51.8532643,10.7967286 L51.8532643,13.9483 L50.1400071,13.9483 C49.8480571,13.9483 49.8703643,14.30495 49.8703643,14.5974071 L49.8703643,15.6151071 C49.8703643,15.9074071 49.8480571,16.1542786 50.1400071,16.1542786 L51.8532643,16.1542786 L51.8532643,27.6958714 C51.8532643,28.7262857 51.8339071,29.3487214 51.9031357,30.1124214 C52.0591,32.1022357 53.1729857,33.1114071 55.2333286,33.1114071 C55.9443714,33.1114071 56.7311571,33.0727957 57.2679643,33.0053421 C57.5324929,32.9723129 57.8021357,32.7471571 57.8021357,32.4802857 L57.8021357,31.4622786 C57.8021357,31.3087571 57.7093643,31.1622214 57.5932071,31.0615857 C57.47705,30.9611 57.1970286,30.9166 57.0450929,30.9387714" id="Fill-8" fill="#2AABE1" mask="url(#mask-2)"></path>
                <path d="M64.4367286,31.2045429 C62.6368929,31.2045429 60.4642571,30.6253643 60.4642571,27.8654929 C60.4642571,25.7510071 62.7030214,23.492 68.8715071,23.492 C69.1952071,23.492 69.4533857,23.4992929 69.8940143,23.5137143 L69.8940143,25.3202357 C69.8940143,28.6749429 67.5166357,31.2045429 64.4367286,31.2045429 M72.0972857,26.8811357 L72.0972857,21.0445857 C72.0972857,20.1538857 72.1135714,19.5655643 72.0437143,18.6554786 C71.7392143,15.3035643 69.4780143,13.4573429 65.6619714,13.4573429 C61.8041071,13.4573429 58.9291071,15.9331357 58.6655071,19.4784214 C58.6545071,19.6254214 58.7068571,19.8091786 58.8070643,19.9167929 C58.9072714,20.0245643 59.0496,20.1250429 59.1964286,20.1250429 L60.5184643,20.1250429 C60.7860929,20.1250429 61.0112857,19.8856214 61.0435071,19.6196857 C61.3410214,17.1282286 63.07055,15.6211429 65.6701786,15.6211429 C68.1728571,15.6211429 69.5895286,16.7152929 69.7736786,18.8967643 C69.8393429,19.6193714 69.8940143,20.3061643 69.8940143,21.1126643 L69.8940143,21.4485357 L69.1609786,21.4485357 C62.14515,21.4485357 57.9561643,23.8663357 57.9561643,27.9585357 C57.9561643,31.3498357 60.2446429,33.3618243 64.0772571,33.3618243 C66.5780714,33.3618243 68.6570071,32.3597857 69.93165,30.5523286 C69.9361429,30.5464357 69.9401714,30.5365143 69.9446643,30.5301571 L70.0572571,32.40165 C70.0741357,32.6804643 70.3052143,32.919575 70.5844643,32.919575 L71.9063571,32.919575 L71.9116429,32.919575 C72.2034286,32.919575 72.4399286,32.6598357 72.4399286,32.3673857 C72.4399286,32.3256714 72.419,32.2737214 72.4097143,32.2343357 C72.2083571,29.9787429 72.0972857,28.6907571 72.0972857,26.8811357" id="Fill-9" fill="#2AABE1" mask="url(#mask-2)"></path>
                <path d="M81.2024286,31.2046786 C79.9186429,31.2046786 75.7326429,30.7188571 75.7326429,24.4723143 L75.7326429,22.7079714 C75.7326429,16.8348286 78.8726429,15.6012786 81.5077143,15.6012786 C85.6614286,15.6012786 87.5196429,19.5289571 87.5196429,23.4201929 C87.5196429,28.0765286 84.9813571,31.2046786 81.2024286,31.2046786 M81.6418571,13.4567071 C79.1377857,13.4567071 77.355,14.2022714 75.8597857,15.8726429 C75.8303571,15.90505 75.8060714,15.9411857 75.7863571,15.9804143 L75.7326429,16.0832214 L75.7326429,14.2580929 C75.7326429,13.9651714 75.4947143,13.7280786 75.2032857,13.7280786 L73.9145,13.7280786 C73.6228571,13.7280786 73.529,13.9651714 73.529,14.2580929 L73.529,38.9952157 C73.529,39.2881365 73.6228571,39.536863 73.9145,39.536863 L75.2032857,39.536863 C75.4947143,39.536863 75.7326429,39.2881365 75.7326429,38.9952157 L75.7326429,30.9882071 L75.7444286,31.0137929 C75.7668571,31.0617071 75.7972143,31.1048143 75.8323571,31.1438929 C77.2277857,32.6478857 78.9342857,33.3492479 81.2013571,33.3492479 C85.5811429,33.3492479 90.0001429,30.2162857 90.0001429,23.2162786 C90.0001429,17.3794214 86.6408571,13.4567071 81.6418571,13.4567071" id="Fill-10" fill="#2AABE1" mask="url(#mask-2)"></path>
            </g>
        </g>
    </g>
</svg>