<svg xmlns="http://www.w3.org/2000/svg" viewBox="0 0 308.4 137.33"><defs><style>.cls-1{fill:#1e3e4f;}.cls-1,.cls-2,.cls-3{fill-rule:evenodd;}.cls-2{fill:#05add0;}.cls-3{fill:#b9b8b9;}</style></defs><g id="Layer_2" data-name="Layer 2"><g id="Layer_1-2" data-name="Layer 1"><path class="cls-1" d="M.14,50.48C-.17,49.41,0,48,1.38,48H6.67c1.21,0,1.72.74,2.07,1.71S28.12,102.2,28.12,102.2,47.3,50.68,47.61,49.65,48.49,48,49.27,48h5.08c1.14,0,2.38.52,1.86,2.13s-25.9,68.7-29.33,74.93c-4.51,8.19-10,12.23-17.1,12.23-3.68,0-5.5-.31-5.5-1.86V131c0-1.19.63-1.71,2.18-1.45s6.73,1.47,10.16-2.9c4.51-5.75,7.36-14.2,7.36-14.2S.45,51.55.14,50.48Z"/><path class="cls-1" d="M167.53,110.18c0,2.3-.53,2.9-2,2.9h-4.15c-2,0-2.38-.92-2.38-2.69v-4.25s-5.23,8.39-19.69,8.39-22.6-9.45-22.6-22.39V49.85c0-.19.29-1.86,1.45-1.86h5.39c1.33,0,1.66.4,1.66,1.66V90.48a17,17,0,0,0,3.21,11.3c2.52,3.75,7,5.29,11.92,5.29,6.14,0,10.51-2.21,14-6.63C158.64,95,159,87.81,159,86.65V50.48c0-1.94.55-2.5,1.87-2.49h4.35c1.07,0,2.28,0,2.28,2.49Z"/><path class="cls-1" d="M113.32,79.19A47.15,47.15,0,0,1,111,94.63c-3.68,10.32-12.27,19.9-29.33,19.9-10.69,0-18.32-4.42-23.84-11.92-6.33-8.6-6.81-20.66-6.43-25,2.08-23.61,17.2-31.2,31.41-31.2C95.84,46.43,113.32,55.08,113.32,79.19Zm-31-25.29c14.61,0,19.49,10.47,21.46,16.27s3.52,22.28-7,31.72a21.45,21.45,0,0,1-22.91,3.42c-11.29-5-13.88-14.62-13.88-26s5-17.41,8.5-20.52S76.32,53.9,82.33,53.9Z"/><path class="cls-2" d="M177.79,36.8c0-1.15,1-1.46,1.76-1.46h4.56a1.74,1.74,0,0,1,2,1.87V48h10.06A1.81,1.81,0,0,1,198,50v3.83c0,1.25-.45,1.87-2,1.87h-9.95v45.6c0,5.24,2.13,5.7,5,5.5s4.62-.32,5.28-.42c1.45-.2,1.87.73,1.87,1.66v3.73c0,1.35-.78,1.66-2.07,1.76s-9.75,1.25-13.27-1-5-4.92-5-10.37V55.66H172.3c-1,0-1.35-.52-1.35-1.45V49.65c0-1.16.33-1.66,1.76-1.66h5.18S177.79,37.94,177.79,36.8Z"/><path class="cls-2" d="M201.73,69c-.93,0-1.6-.41-1.45-2.28a21.81,21.81,0,0,1,8.29-15.24,26.54,26.54,0,0,1,16.17-5.39c7.93,0,13.37,2.75,16.38,5.19s6.22,7.72,6.22,15.13V98c0,4.56.62,10.83.83,12.64s-.31,2.49-2,2.49h-4.35c-.89,0-1.51-.79-1.66-2-.26-2-.52-6.22-.52-6.22s-4.63,9.64-20.32,9.64c-4.18,0-13.42-.31-18.24-8.71A18.64,18.64,0,0,1,204.32,83c4.13-4.12,14-9.69,35.35-9.22v-5c0-2.28-.11-6.53-2.49-9.84s-5.13-5.19-12.64-5.19-10.47,2.8-12.13,4.87-3.73,5.08-3.73,8.19A2.07,2.07,0,0,1,206.5,69Zm37.94,11.82v6.53c0,2.74-.52,11.91-10.68,17.93-1.91,1.13-10.83,4.3-18.45-1.35-2.63-1.95-4.14-6.48-2.8-11.09.79-2.68,4.51-8.34,13.38-10.37A76.38,76.38,0,0,1,239.67,80.85Z"/><path class="cls-2" d="M252,49.44c0-.88.31-1.4,1.35-1.4h5c.93,0,1.34.67,1.34,1.5v5.6s5.18-6.63,13.06-8.08,16.64-.83,23.94,4.66c3.1,2.32,11.51,11.19,11.72,25.81.1,7.16.1,21.56-11.72,30.68-3.88,3-8.6,6.32-18.55,6.32-4.35,0-12.23-.36-18.45-8.08v26.84a2.09,2.09,0,0,1-2.07,2.39h-3.73c-1.35,0-1.87-.63-1.87-2Zm7.67,27.36c0-6.06,2-12.07,3.32-14.2s5.13-8.81,16.27-8.81a17.66,17.66,0,0,1,16,8.5c1.56,2.39,6.59,11.25,4.46,24.36-.65,4-1.92,12.28-11.82,18.35-3.06,1.88-10.2,4.09-18.86-.52-3.77-2-9.33-7.83-9.33-19.18Z"/><path class="cls-3" d="M181.78,0a3,3,0,0,1,2.95,3v19.7a3,3,0,1,1-5.9,0V3A3,3,0,0,1,181.78,0ZM156.19,8.59a3,3,0,0,1,4.17.26l13,14.77A3,3,0,1,1,169,27.53l-13-14.77A3,3,0,0,1,156.19,8.59Zm51.54,4.18-13,14.74a3,3,0,0,1-4.18.26,3,3,0,0,1-.26-4.16l13-14.74a3,3,0,0,1,4.18-.26A3,3,0,0,1,207.73,12.77Z"/></g></g></svg>